<?xml version="1.0" standalone="no"?>
<!DOCTYPE svg PUBLIC "-//W3C//DTD SVG 20010904//EN"
 "http://www.w3.org/TR/2001/REC-SVG-20010904/DTD/svg10.dtd">
<svg version="1.0" xmlns="http://www.w3.org/2000/svg"
 width="400.000000pt" height="400.000000pt" viewBox="0 0 400.000000 400.000000"
 preserveAspectRatio="xMidYMid meet">
<metadata>
Created by potrace 1.14, written by Peter Selinger 2001-2017
</metadata>
<g transform="translate(0.000000,400.000000) scale(0.100000,-0.100000)"
fill="#000000" stroke="none">
<path d="M1859 3927 c-2 -3 -29 -7 -59 -10 -140 -14 -302 -62 -438 -131 -309
-156 -546 -419 -682 -758 -36 -92 -86 -283 -97 -376 -11 -88 -10 -1199 0
-1277 39 -284 162 -567 340 -780 204 -244 486 -410 802 -471 95 -19 378 -26
465 -12 25 4 61 10 80 13 132 22 280 77 468 176 148 77 184 87 236 65 30 -13
42 -28 81 -108 25 -52 57 -106 72 -122 87 -95 242 -65 282 54 9 26 11 327 8
1230 -2 657 -7 1206 -11 1220 -3 14 -8 41 -11 60 -12 90 -48 222 -86 317 -163
412 -475 713 -874 845 -130 42 -237 59 -406 64 -91 3 -167 3 -170 1z"/>
</g>
</svg>
